<?xml version="1.0" standalone="no"?>
<!DOCTYPE svg PUBLIC "-//W3C//DTD SVG 20010904//EN"
 "http://www.w3.org/TR/2001/REC-SVG-20010904/DTD/svg10.dtd">
<svg version="1.0" xmlns="http://www.w3.org/2000/svg"
 width="260.000000pt" height="260.000000pt" viewBox="0 0 260.000000 260.000000"
 preserveAspectRatio="xMidYMid meet">
<metadata>
Created by potrace 1.11, written by Peter Selinger 2001-2013
</metadata>
<g transform="translate(0.000000,260.000000) scale(0.100000,-0.100000)"
fill="#000000" stroke="none">
<path d="M1310 2322 c0 -4 -9 -8 -20 -9 -20 -2 -218 -30 -261 -38 -13 -2 -40
-6 -59 -9 -52 -7 -166 -24 -272 -40 -51 -8 -111 -18 -133 -21 -22 -3 -53 -8
-70 -11 -39 -8 -47 -9 -134 -19 -75 -8 -78 -18 -10 -30 19 -3 52 -11 74 -17
22 -5 51 -12 64 -14 12 -3 53 -12 90 -20 95 -23 99 -24 122 -29 11 -2 28 -6
37 -9 9 -3 28 -7 42 -10 14 -3 95 -21 180 -41 85 -20 162 -38 170 -40 8 -2 45
-10 83 -19 108 -25 128 -28 207 -27 48 0 105 9 160 25 47 13 162 45 255 71 94
25 181 50 195 55 14 5 86 25 160 45 74 20 138 40 143 44 4 4 -35 13 -85 20
-51 7 -102 15 -113 17 -24 5 -218 34 -260 40 -28 3 -92 13 -125 19 -8 2 -37 6
-65 10 -27 4 -59 8 -70 10 -11 1 -42 6 -70 9 -27 4 -72 11 -100 16 -27 6 -65
11 -82 12 -18 1 -33 6 -33 10 0 4 -4 8 -10 8 -5 0 -10 -4 -10 -8z"/>
<path d="M192 2058 c-5 -7 -13 -24 -17 -38 -5 -14 -8 -295 -8 -626 0 -552 2
-604 18 -638 16 -32 32 -44 134 -93 229 -110 399 -192 596 -288 381 -185 369
-181 391 -136 9 18 13 206 13 746 0 661 -1 724 -17 756 -16 32 -49 56 -90 64
-23 4 -181 46 -624 164 -207 56 -378 101 -381 101 -2 0 -9 -6 -15 -12z"/>
<path d="M2395 2060 c-11 -4 -63 -22 -115 -38 -52 -17 -223 -72 -380 -122
-157 -50 -299 -96 -316 -101 -18 -5 -39 -18 -47 -27 -42 -46 -43 -56 -42 -782
1 -382 5 -711 8 -730 14 -71 28 -68 203 35 88 52 170 100 184 107 14 8 144 83
289 167 236 138 265 157 279 190 13 31 15 121 15 648 0 557 -1 614 -17 637
-17 27 -28 30 -61 16z"/>
</g>
</svg>
